<svg width="250" height="252" viewBox="0 0 250 252" fill="none" xmlns="http://www.w3.org/2000/svg">
<path d="M249.216 0L125.196 0.39905C125.196 11.1199 124.514 35.1405 127.191 58.9645C129.867 82.7885 139.173 97.9763 150.771 109.591C166.532 125.374 189.77 128.146 212.044 130.139C228.684 131.628 246.431 128.054 250 127.161C245.932 126.565 230.752 127.161 215.897 122.396C200.931 117.596 195.378 111.377 192.701 107.506C197.757 104.925 212.044 95.5939 229.576 71.1743C245.953 48.3637 249.216 14.7908 249.216 0Z" fill="#FC4487"/>
<path d="M249.858 251.137L249.46 126.941C238.754 126.941 214.768 126.258 190.977 128.938C167.187 131.619 152.021 140.937 140.423 152.552C124.662 168.335 121.894 191.606 119.904 213.912C118.417 230.575 121.986 248.348 122.878 251.922C123.472 247.848 122.878 232.647 127.636 217.77C132.429 202.783 138.639 197.222 142.505 194.542C145.082 199.604 154.4 213.912 178.785 231.469C201.563 247.869 235.089 251.137 249.858 251.137Z" fill="#FC4487"/>
<path d="M0.783508 252L124.804 251.601C124.804 240.88 125.486 216.86 122.809 193.036C120.133 169.211 110.827 154.024 99.2291 142.409C83.4681 126.626 60.2299 123.854 37.9558 121.861C21.316 120.372 3.5686 123.946 5.68774e-05 124.839C4.068 125.435 19.2476 124.839 34.1032 129.604C49.0694 134.404 54.6224 140.623 57.2988 144.494C52.2433 147.075 37.9558 156.406 20.4238 180.826C4.04707 203.636 0.78351 237.209 0.783508 252Z" fill="#FC4487"/>
<path d="M-5.42449e-06 0.784676L0.398484 124.981C11.1041 124.981 35.0907 125.664 58.881 122.983C82.6712 120.303 97.8375 110.984 109.435 99.37C125.196 83.5865 127.964 60.3154 129.954 38.0097C131.441 21.3463 127.873 3.5737 126.981 9.36238e-05C126.386 4.07381 126.981 19.275 122.223 34.1517C117.429 49.1391 111.22 54.6999 107.354 57.3801C104.776 52.3175 95.4585 38.0097 71.0735 20.4529C48.2952 4.05286 14.7698 0.784675 -5.42449e-06 0.784676Z" fill="#FC4487"/>
</svg>
